<svg xmlns="http://www.w3.org/2000/svg" xmlns:xlink="http://www.w3.org/1999/xlink" id="Layer_1" width="20" height="20" x="0" style="enable-background:new 0 0 20 20" y="0" version="1.1" viewBox="0 0 20 20" xml:space="preserve"><g><g><path style="fill-rule:evenodd;clip-rule:evenodd;fill:#fff" d="M3.184,11.345l-1.127,2.864L0.01,8.987l1.127-2.864 L3.184,11.345z M12.251,11.345l-1.127,2.864L9.087,8.987l1.117-2.864L12.251,11.345z"/><path style="fill-rule:evenodd;clip-rule:evenodd;fill:#fff" d="M3.184,11.345L1.137,6.124L2.254,3.25l2.047,5.231 L3.184,11.345z M12.251,11.345l-2.047-5.221l1.127-2.874l2.037,5.231L12.251,11.345z"/><path style="fill-rule:evenodd;clip-rule:evenodd;fill:#fff" d="M2.502,3.25h4.094l4.28,10.959H6.792L2.502,3.25z M11.579,3.25h4.084l4.28,10.959h-4.084L11.579,3.25z"/></g></g></svg>